# Aspose.3D Wavefront OBJ Exporter
# Copyright 2004-2021 Aspose Pty Ltd.
# File created: 11/16/2021 10:50:13


#
# object Box001
#

v -4.92126227938879168 -7.499419325540657E-07 2.993839330495981E-06
v 4.92125652706825536 -2.5099216607316066E-06 5.048522993102363E-07
v -4.92125523946960448 39.37007829058475752 1.396107834287867E-06
v 4.92126070596449328 39.37007653060553736 -1.0928784733992332E-06
v -4.92124037630209616 2.7650631331255227E-06 86.61416925360211392
v 4.92127843015495088 1.0050834049479818E-06 86.61416676461507792
v -4.92123333638290912 39.3700818055898196 86.61416765587061664
v 4.92128547007413888 39.37008004561009496 86.61416516688358056
# 8 vertices

vn -2.5288111219832105E-07 -4.0582334475396924E-08 -0.9999999999999672
vn -2.5288111219832105E-07 -4.0582334475396924E-08 -0.9999999999999672
vn -2.5288111219832105E-07 -4.0582334475396924E-08 -0.9999999999999672
vn -2.5288111219832105E-07 -4.0582334475396924E-08 -0.9999999999999672
vn 2.5288111219832105E-07 4.0582334475396924E-08 0.9999999999999672
vn 2.5288111219832105E-07 4.0582334475396924E-08 0.9999999999999672
vn 2.5288111219832105E-07 4.0582334475396924E-08 0.9999999999999672
vn 2.5288111219832105E-07 4.0582334475396924E-08 0.9999999999999672
vn -1.7881394599301448E-07 -0.9999999999999832 4.058237969406711E-08
vn -1.7881394599301448E-07 -0.9999999999999832 4.058237969406711E-08
vn -1.7881394599301448E-07 -0.9999999999999832 4.058237969406711E-08
vn -1.7881394599301448E-07 -0.9999999999999832 4.058237969406711E-08
vn 0.9999999999999544 -1.4247896502163944E-07 -2.6939701328054545E-07
vn 0.9999999999999544 -1.4247896502163944E-07 -2.6939701328054545E-07
vn 0.9999999999999544 -1.4247896502163944E-07 -2.6939701328054545E-07
vn 0.9999999999999544 -1.4247896502163944E-07 -2.6939701328054545E-07
vn 1.7881394599301448E-07 0.9999999999999832 -4.058237969406711E-08
vn 1.7881394599301448E-07 0.9999999999999832 -4.058237969406711E-08
vn 1.7881394599301448E-07 0.9999999999999832 -4.058237969406711E-08
vn 1.7881394599301448E-07 0.9999999999999832 -4.058237969406711E-08
vn -0.999999999999952 1.788139562555259E-07 2.528811049416294E-07
vn -0.999999999999952 1.788139562555259E-07 2.528811049416294E-07
vn -0.999999999999952 1.788139562555259E-07 2.528811049416294E-07
vn -0.999999999999952 1.788139562555259E-07 2.528811049416294E-07
# 24 vertex normals

vt 0.98976588249206544 0.19372177124023436 0
vt 0.85234093666076656 0.193721741437912 0
vt 0.98976576328277584 0.74342131614685056 0
vt 0.85234081745147712 0.74342131614685056 0
vt 0.7032325267791748 0.18749022483825684 0
vt 0.84204989671707152 0.18749022483825684 0
vt 0.7032325267791748 0.74275970458984368 0
vt 0.84204989671707152 0.74275970458984368 0
vt 0.99071246385574336 0.87833166122436528 0
vt 0.99071252346038816 0.99008822441101072 0
vt 0.00725486874580383 0.87833184003829952 0
vt 0.00725489854812622 0.99008840322494512 0
vt 0.00985795259475708 0.01128134131431579 0
vt 0.34555712342262268 0.01128125190734863 0
vt 0.00985804200172424 0.74981939792633056 0
vt 0.34555721282958984 0.74981927871704096 0
vt 0.98966050148010256 0.76115798950195312 0
vt 0.98966050148010256 0.87264055013656624 0
vt 0.00861352682113647 0.76115775108337408 0
vt 0.00861352682113647 0.87264031171798704 0
vt 0.35529446601867676 0.01147808320820331 0
vt 0.6900082230567932 0.0114778708666563 0
vt 0.3552948534488678 0.74784827232360832 0
vt 0.69000864028930664 0.74784803390502928 0
# 24 texture coords

g Box001
s 1
f 1/1/1 3/3/2 4/4/3 2/2/4
f 5/5/5 6/6/6 8/8/7 7/7/8
f 1/9/9 2/10/10 6/12/11 5/11/12
f 2/13/13 4/14/14 8/16/15 6/15/16
f 4/17/17 3/18/18 7/20/19 8/19/20
f 3/21/21 1/22/22 5/24/23 7/23/24
#6 polygons

